<?xml version="1.0" encoding="UTF-8" standalone="no"?>
<svg
   xmlns:dc="http://purl.org/dc/elements/1.1/"
   xmlns:cc="http://creativecommons.org/ns#"
   xmlns:rdf="http://www.w3.org/1999/02/22-rdf-syntax-ns#"
   xmlns:svg="http://www.w3.org/2000/svg"
   xmlns="http://www.w3.org/2000/svg"
   xmlns:xlink="http://www.w3.org/1999/xlink"
   xmlns:sodipodi="http://sodipodi.sourceforge.net/DTD/sodipodi-0.dtd"
   xmlns:inkscape="http://www.inkscape.org/namespaces/inkscape"
   width="762.96899mm"
   height="369.16669mm"
   viewBox="0 0 762.96899 369.16669"
   version="1.1"
   id="svg13642"
   inkscape:version="1.0.2-2 (e86c870879, 2021-01-15)"
   sodipodi:docname="dark_openMINDS-logo.svg">
  <defs
     id="defs13636">
    <linearGradient
       inkscape:collect="always"
       xlink:href="#linear-gradient"
       id="linearGradient23192"
       gradientUnits="userSpaceOnUse"
       gradientTransform="translate(-4407.8134,6497.366)"
       x1="-6012.9951"
       y1="-2083.6816"
       x2="-6012.9951"
       y2="-2217.5669" />
    <linearGradient
       gradientUnits="userSpaceOnUse"
       y2="100"
       x2="200"
       y1="100"
       x1="0.5"
       id="linear-gradient">
      <stop
         id="stop15253"
         stop-color="#f7db2e"
         offset="0" />
      <stop
         id="stop15255"
         stop-color="#82c558"
         offset="0.5" />
      <stop
         id="stop15257"
         stop-color="#127e7a"
         offset="1" />
    </linearGradient>
    <inkscape:path-effect
       effect="bspline"
       id="path-effect22683"
       is_visible="true"
       weight="33.333333"
       steps="2"
       helper_size="0"
       apply_no_weight="true"
       apply_with_weight="true"
       only_selected="false"
       lpeversion="0" />
    <inkscape:path-effect
       effect="bspline"
       id="path-effect22687"
       is_visible="true"
       weight="33.333333"
       steps="2"
       helper_size="0"
       apply_no_weight="true"
       apply_with_weight="true"
       only_selected="false"
       lpeversion="0" />
    <inkscape:path-effect
       effect="bspline"
       id="path-effect22689"
       is_visible="true"
       weight="33.333333"
       steps="2"
       helper_size="0"
       apply_no_weight="true"
       apply_with_weight="true"
       only_selected="false"
       lpeversion="0" />
    <inkscape:path-effect
       effect="bspline"
       id="path-effect22691"
       is_visible="true"
       weight="33.333333"
       steps="2"
       helper_size="0"
       apply_no_weight="true"
       apply_with_weight="true"
       only_selected="false"
       lpeversion="0" />
    <inkscape:path-effect
       effect="bspline"
       id="path-effect22693"
       is_visible="true"
       weight="33.333333"
       steps="2"
       helper_size="0"
       apply_no_weight="true"
       apply_with_weight="true"
       only_selected="false"
       lpeversion="0" />
    <inkscape:path-effect
       effect="bspline"
       id="path-effect22695"
       is_visible="true"
       weight="33.333333"
       steps="2"
       helper_size="0"
       apply_no_weight="true"
       apply_with_weight="true"
       only_selected="false"
       lpeversion="0" />
    <inkscape:path-effect
       effect="bspline"
       id="path-effect22697"
       is_visible="true"
       weight="33.333333"
       steps="2"
       helper_size="0"
       apply_no_weight="true"
       apply_with_weight="true"
       only_selected="false"
       lpeversion="0" />
    <inkscape:path-effect
       effect="bspline"
       id="path-effect22699"
       is_visible="true"
       weight="33.333333"
       steps="2"
       helper_size="0"
       apply_no_weight="true"
       apply_with_weight="true"
       only_selected="false"
       lpeversion="0" />
    <inkscape:path-effect
       effect="bspline"
       id="path-effect22701"
       is_visible="true"
       weight="33.333333"
       steps="2"
       helper_size="0"
       apply_no_weight="true"
       apply_with_weight="true"
       only_selected="false"
       lpeversion="0" />
  </defs>
  <sodipodi:namedview
     id="base"
     pagecolor="#ffffff"
     bordercolor="#666666"
     borderopacity="1.0"
     inkscape:pageopacity="0.0"
     inkscape:pageshadow="2"
     inkscape:zoom="0.0875"
     inkscape:cx="330.90455"
     inkscape:cy="1965.3802"
     inkscape:document-units="mm"
     inkscape:current-layer="layer2"
     inkscape:document-rotation="0"
     showgrid="false"
     inkscape:window-width="1313"
     inkscape:window-height="1030"
     inkscape:window-x="96"
     inkscape:window-y="478"
     inkscape:window-maximized="0" />
  <metadata
     id="metadata13639">
    <rdf:RDF>
      <cc:Work
         rdf:about="">
        <dc:format>image/svg+xml</dc:format>
        <dc:type
           rdf:resource="http://purl.org/dc/dcmitype/StillImage" />
        <dc:title></dc:title>
      </cc:Work>
    </rdf:RDF>
  </metadata>
  <g
     inkscape:label="Ebene 1"
     inkscape:groupmode="layer"
     id="layer1"
     transform="translate(228.026,40.9524)"
     sodipodi:insensitive="true">
    <rect
       style="fill:#303030;fill-opacity:1;stroke:#000000;stroke-width:0.243643;stroke-linecap:square"
       id="rect14299"
       width="762.7254"
       height="368.92337"
       x="-227.90421"
       y="-40.830734" />
  </g>
  <g
     inkscape:groupmode="layer"
     id="layer2"
     inkscape:label="logo">
    <g
       id="g13404"
       transform="translate(11059.003,-4120.7489)">
      <path
         inkscape:export-ydpi="50"
         inkscape:export-xdpi="50"
         sodipodi:nodetypes="cccc"
         inkscape:connector-curvature="0"
         id="path1486-5-5-5-1-5-9-07-9"
         d="m -10512.654,4243.4868 v 207.0198 l -109.364,-207.675 v 207.0192"
         style="fill:none;stroke:#ffffff;stroke-width:15;stroke-linecap:round;stroke-linejoin:round;stroke-miterlimit:4;stroke-dasharray:none;stroke-opacity:1" />
      <path
         inkscape:export-ydpi="50"
         inkscape:export-xdpi="50"
         sodipodi:nodetypes="ccccc"
         inkscape:connector-curvature="0"
         id="path1908-1-5-79-2-0-88-3-31"
         d="m -10897.219,4482.4152 v -239.5843 l 88.481,69.0685 88.484,-69.0685 v 207.0199"
         style="fill:none;stroke:#ffffff;stroke-width:15;stroke-linecap:round;stroke-linejoin:round;stroke-miterlimit:4;stroke-dasharray:none;stroke-opacity:1" />
      <path
         style="fill:none;fill-opacity:1;stroke:#ffffff;stroke-width:15;stroke-linecap:round;stroke-linejoin:round;stroke-miterlimit:4;stroke-dasharray:none;stroke-dashoffset:0;stroke-opacity:1"
         d="m -10970.569,4163.1322 c 0,17.8037 -18.118,34.8823 -40.467,34.8823 -22.35,0 -40.467,-17.0786 -40.467,-34.8823 0,-17.8038 18.117,-34.8824 40.467,-34.8824 22.349,0 40.467,17.0786 40.467,34.8824 z"
         id="path1910-6-6-8-8-7-5-89-0-4"
         inkscape:connector-curvature="0"
         sodipodi:nodetypes="sssss" />
      <path
         sodipodi:nodetypes="cccssscc"
         inkscape:connector-curvature="0"
         id="path1942-5-1-9-0-95-4-20-9"
         d="m -10950.571,4248.3902 v -50.3756 m 0,-69.7107 36.993,-0.054 c 22.35,-0.04 40.468,17.0787 40.468,34.8825 0,17.8036 -18.118,34.8821 -40.468,34.8821 h -36.993 z"
         style="fill:none;stroke:#ffffff;stroke-width:15;stroke-linecap:round;stroke-linejoin:round;stroke-miterlimit:4;stroke-dasharray:none;stroke-opacity:1" />
      <g
         inkscape:export-ydpi="50"
         inkscape:export-xdpi="50"
         style="stroke:#ffffff;stroke-width:9.92515;stroke-miterlimit:4;stroke-dasharray:none;stroke-opacity:1"
         transform="matrix(1.5113121,0,0,1.5113121,-10682.584,4150.0903)"
         id="g1996-8-1-58-6-6-47-6-9">
        <path
           style="opacity:1;fill:none;fill-opacity:1;stroke:#ffffff;stroke-width:9.92515;stroke-linecap:round;stroke-linejoin:round;stroke-miterlimit:4;stroke-dasharray:none;stroke-dashoffset:0;stroke-opacity:1"
           d="m -64.944758,22.900443 c -5.800014,5.679036 -14.834199,8.70694 -21.116025,8.80986 -14.788057,0 -26.776137,-11.300517 -26.776137,-23.0808293 m 0,0 c 0,-11.7803118 11.98808,-23.0808287 26.776137,-23.0808297 14.788054,0 26.77614,11.300517 26.77614,23.0808297 z"
           id="path1910-6-3-1-0-87-3-4-3-1-33"
           inkscape:connector-curvature="0"
           sodipodi:nodetypes="ccccscc" />
      </g>
      <g
         inkscape:export-ydpi="50"
         inkscape:export-xdpi="50"
         style="stroke:#ffffff;stroke-width:9.92515;stroke-miterlimit:4;stroke-dasharray:none;stroke-opacity:1"
         transform="matrix(1.5113121,0,0,1.5113121,-10702.522,4140.8844)"
         id="g2033-8-98-9-6-3-4-6-5">
        <path
           style="opacity:1;fill:none;fill-opacity:1;stroke:#ffffff;stroke-width:9.92515;stroke-linecap:round;stroke-linejoin:round;stroke-miterlimit:4;stroke-dasharray:none;stroke-dashoffset:0;stroke-opacity:1"
           d="m -32.785292,14.755479 c 0,-11.7803139 11.988086,-23.080635 26.77614,-23.080635 14.788054,0 26.776152,11.3000415 26.776152,23.080355 V 204.43589"
           id="path1910-6-7-3-5-2-3-7-50-4-4"
           inkscape:connector-curvature="0"
           sodipodi:nodetypes="cssc" />
        <path
           style="fill:none;stroke:#ffffff;stroke-width:9.92515;stroke-linecap:round;stroke-linejoin:round;stroke-miterlimit:4;stroke-dasharray:none;stroke-opacity:1"
           d="m -32.785042,-8.2893725 -2.5e-4,23.0448515 2.5e-4,23.116521"
           id="path2028-2-0-71-7-8-4-1-72"
           inkscape:connector-curvature="0"
           sodipodi:nodetypes="ccc" />
      </g>
      <path
         sodipodi:nodetypes="cccsaaaascaaassac"
         inkscape:connector-curvature="0"
         id="path1910-6-0-3-9-8-3-61-3-4-2"
         d="m -10810.855,4482.4157 h 260.527 66.695 60.251 c 25.373,0 50.268,-2.1751 71.134,-14.4205 15.939,-9.3539 28.363,-25.2896 36.113,-42.0669 11.334,-24.5383 12.601,-53.0741 12.601,-80.1036 0,-27.0296 -1.267,-55.5653 -12.601,-80.1036 -7.749,-16.7773 -20.588,-32.0413 -36.113,-42.0669 -19.866,-12.8288 -66.166,-13.6883 -86.251,-14.4191 -20.469,-1.8113 -24.906,-1.8782 -33.342,-9.8186 -7.85,-7.3875 -10.997,-19.6307 -10.997,-30.4098 0,-10.7791 3.469,-22.6946 10.997,-30.4099 6.633,-6.7985 17.051,-10.3478 26.549,-10.3478 h 93.824 c 9.498,0 19.916,3.5492 26.549,10.3478 7.527,7.7153 10.996,22.1506 10.996,30.4099"
         style="fill:none;fill-opacity:1;stroke:#ffffff;stroke-width:15;stroke-linecap:round;stroke-linejoin:round;stroke-miterlimit:4;stroke-dasharray:none;stroke-dashoffset:0;stroke-opacity:1" />
      <path
         style="fill:url(#linearGradient23192);fill-opacity:1;stroke:#ffffff;stroke-width:14;stroke-linecap:round;stroke-linejoin:round;stroke-miterlimit:4;stroke-dasharray:none;stroke-opacity:1"
         d="m -10465.593,4248.6277 c 0,0 0,186.3901 0,186.3901 3.193,3.3365 6.386,6.6734 11.591,9.5478 5.205,2.8745 12.42,5.2865 20.138,6.0905 7.718,0.804 15.939,-2e-4 21.83,-2.0472 5.892,-2.047 9.455,-5.337 11.946,-7.8011 2.491,-2.4642 3.913,-4.1047 5.218,-4.8883 1.304,-0.7837 2.492,-0.7105 6.194,-0.439 3.702,0.2716 9.927,0.7421 15.001,-2.0926 5.073,-2.8347 9.002,-8.9768 10.131,-15.25 1.13,-6.2733 -0.538,-12.6774 -0.779,-15.9934 -0.24,-3.316 0.947,-3.5352 4.23,-5.7469 3.283,-2.2117 8.668,-6.4203 11.453,-10.7934 2.786,-4.3732 2.968,-8.9028 2.138,-13.4736 -0.831,-4.5707 -2.676,-9.1826 -4.52,-13.7939 0,0 -1.096,-1.0966 -1.096,-1.0966 3.178,-3.8532 6.356,-7.7074 7.123,-12.5936 0.766,-4.8862 -0.879,-10.8085 -2.876,-14.3955 -1.997,-3.587 -4.347,-4.8401 -4.849,-9.3138 -0.503,-4.4737 0.844,-12.1632 0.464,-17.7503 -0.38,-5.5871 -2.488,-9.0777 -5.653,-11.6185 -3.166,-2.5408 -7.392,-4.1341 -10.914,-5.7142 -3.521,-1.5801 -6.336,-3.1461 -8.1,-7.7227 -1.764,-4.5765 -2.476,-12.1628 -5.465,-16.8928 -2.989,-4.73 -8.254,-6.6035 -13.044,-6.6834 -4.79,-0.08 -9.102,1.6335 -13.019,1.336 -3.916,-0.2976 -7.432,-2.6069 -10.21,-4.8031 -2.778,-2.1963 -4.81,-4.2705 -8.11,-5.9683 -3.3,-1.6979 -7.772,-2.9721 -12.254,-3.712 -4.481,-0.74 -8.914,-0.9339 -13.089,-0.758 -4.175,0.1759 -8.039,0.7192 -10.241,2.1126 -2.202,1.3933 -2.72,3.6278 -3.238,5.8652 z"
         id="path1190-2-8-8-7-0-8-9-2-95-7"
         inkscape:connector-curvature="0"
         inkscape:path-effect="#path-effect22683"
         inkscape:original-d="m -10465.593,4248.6277 v 186.3901 c 0,0 6.387,6.6721 9.578,10.0095 7.218,2.4116 14.433,4.8237 21.648,7.2369 8.221,-0.8049 16.442,-1.6091 24.662,-2.4123 3.563,-3.2899 7.126,-6.5798 10.687,-9.8684 1.421,-1.6402 2.843,-3.2806 4.265,-4.9208 1.187,0.073 2.375,0.146 3.562,0.2194 6.217,0.4697 12.442,0.9403 18.662,1.4107 3.927,-6.1398 7.856,-12.2817 11.783,-18.4209 -1.668,-6.4074 -3.336,-12.8114 -5.006,-19.2239 1.189,-0.2196 2.376,-0.4389 3.562,-0.6577 5.38,-4.2043 10.765,-8.413 16.153,-12.6237 0.183,-4.5356 0.366,-9.0652 0.548,-13.5961 -1.844,-4.6106 -5.533,-13.8338 -5.533,-13.8338 l -1.096,-1.0966 c 0,0 6.356,-7.7075 9.533,-11.5597 -1.644,-5.9201 -3.288,-11.8426 -4.933,-17.7631 -2.35,-1.2537 -4.7,-2.5068 -7.052,-3.7605 1.348,-7.6932 2.694,-15.3828 4.04,-23.0697 -2.105,-3.4878 -4.213,-6.9782 -6.32,-10.4664 -4.225,-1.5935 -8.451,-3.1869 -12.678,-4.7801 -2.816,-1.5667 -5.631,-3.1328 -8.447,-4.6989 -0.712,-7.5867 -1.424,-15.173 -2.136,-22.7591 -5.266,-1.874 -10.531,-3.7476 -15.797,-5.6212 -4.314,1.7139 -8.626,3.4271 -12.942,5.1423 -3.517,-2.3102 -7.033,-4.6197 -10.546,-6.9263 -2.043,-2.0858 -4.075,-4.16 -6.135,-6.2619 -4.54,-1.2937 -9.012,-2.5678 -13.523,-3.8529 -4.452,-0.195 -8.885,-0.3889 -13.345,-0.5837 -3.89,0.5467 -7.754,1.0899 -11.639,1.6365 -0.519,2.2404 -1.555,6.7123 -1.555,6.7123 z"
         sodipodi:nodetypes="cccccccccccccccccccccccscccccccc" />
      <path
         style="fill:none;stroke:#ffffff;stroke-width:4.06032;stroke-linecap:round;stroke-linejoin:round;stroke-miterlimit:4;stroke-dasharray:none;stroke-opacity:1"
         d="m -10397.931,4259.7091 c -2.396,0.5064 -4.788,1.0119 -8.309,1.763 -3.521,0.7511 -8.147,1.7426 -11.381,3.6249 -3.233,1.8824 -5.065,4.6525 -5.94,6.4481 -0.876,1.7956 -0.793,2.615 -0.711,3.4342"
         id="path1198-1-7-1-8-23-1-32-1-2"
         inkscape:connector-curvature="0"
         inkscape:path-effect="#path-effect22687"
         inkscape:original-d="m -10397.931,4259.7091 c -2.396,0.5061 -4.788,1.0116 -7.188,1.5191 -4.642,0.9948 -9.268,1.9863 -13.903,2.98 -1.832,2.7714 -3.664,5.5413 -5.497,8.3135 0.08,0.8192 0.165,1.6384 0.247,2.4576"
         sodipodi:nodetypes="ccccc" />
      <path
         style="fill:none;stroke:#ffffff;stroke-width:4.06032;stroke-linecap:round;stroke-linejoin:round;stroke-miterlimit:4;stroke-dasharray:none;stroke-opacity:1"
         d="m -10461.454,4304.8303 c 3.631,-4.2541 7.261,-8.5072 12.05,-9.795 4.788,-1.2879 10.736,0.3896 16.682,2.0665"
         id="path1202-4-02-6-4-91-82-9-9-0"
         inkscape:connector-curvature="0"
         inkscape:path-effect="#path-effect22689"
         inkscape:original-d="m -10461.454,4304.8303 c 3.631,-4.2541 7.261,-8.5073 10.891,-12.76 5.947,1.6768 11.895,3.3543 17.841,5.0315"
         sodipodi:nodetypes="ccc" />
      <path
         style="fill:none;stroke:#ffffff;stroke-width:4.06032;stroke-linecap:round;stroke-linejoin:round;stroke-miterlimit:4;stroke-dasharray:none;stroke-opacity:1"
         d="m -10360.705,4293.8449 c -4.297,-2.0031 -8.592,-4.0053 -12.091,-5.3146 -3.499,-1.3092 -6.198,-1.9241 -10.046,-2.1545 -3.848,-0.2304 -8.843,-0.076 -12.861,1.7026 -4.018,1.7785 -7.059,5.1816 -9.087,8.6885 -2.029,3.5068 -3.043,7.1161 -3.325,9.8822 -0.281,2.7662 0.171,4.6882 0.623,6.6102"
         id="path1206-3-4-5-1-1-2-5-6-64"
         inkscape:connector-curvature="0"
         inkscape:path-effect="#path-effect22691"
         inkscape:original-d="m -10360.705,4293.8449 c -4.297,-2.0034 -8.592,-4.0059 -12.89,-6.0087 -2.7,-0.6154 -5.399,-1.2305 -8.1,-1.8453 -4.995,0.1542 -9.99,0.3087 -14.986,0.4634 -3.04,3.403 -6.081,6.8059 -9.123,10.2099 -1.014,3.6097 -2.029,7.2188 -3.044,10.8292 0.452,1.9219 0.904,3.8439 1.356,5.7659"
         sodipodi:nodetypes="cccccsc" />
      <path
         style="fill:none;stroke:#ffffff;stroke-width:4.06032;stroke-linecap:round;stroke-linejoin:round;stroke-miterlimit:4;stroke-dasharray:none;stroke-opacity:1"
         d="m -10352.476,4352.0597 c -2.294,2.6259 -4.588,5.251 -6.784,7.4137 -2.196,2.1628 -4.29,3.8589 -7.655,5.4509 -3.365,1.5921 -7.999,3.0787 -10.994,3.8103 -2.994,0.7316 -4.346,0.7076 -5.699,0.6836"
         id="path1210-3-03-6-6-0-1-82-5-3"
         inkscape:connector-curvature="0"
         inkscape:path-effect="#path-effect22693"
         inkscape:original-d="m -10352.476,4352.0597 c -2.294,2.6262 -4.588,5.251 -6.884,7.8788 -2.096,1.6977 -4.19,3.394 -6.286,5.0913 -4.634,1.4865 -9.268,2.9732 -13.904,4.4604 -1.353,-0.024 -2.705,-0.048 -4.058,-0.072"
         sodipodi:nodetypes="ccccc" />
      <path
         style="fill:none;stroke:#ffffff;stroke-width:4.06032;stroke-linecap:round;stroke-linejoin:round;stroke-miterlimit:4;stroke-dasharray:none;stroke-opacity:1"
         d="m -10432.108,4428.0827 c -0.163,-1.1654 -0.326,-2.3309 0.131,-4.8184 0.458,-2.4875 1.535,-6.2962 3.991,-9.5994 2.456,-3.3031 6.29,-6.1007 10.519,-8.0408 4.228,-1.94 8.852,-3.0231 12.347,-3.5193 3.495,-0.4961 5.864,-0.4058 8.231,-0.3156"
         id="path1214-8-85-3-2-0-9-2-2-9"
         inkscape:connector-curvature="0"
         inkscape:path-effect="#path-effect22695"
         inkscape:original-d="m -10432.108,4428.0827 c -0.162,-1.1655 -0.325,-2.331 -0.489,-3.4967 1.078,-3.8091 2.156,-7.6178 3.233,-11.4262 3.834,-2.7983 7.668,-5.5957 11.501,-8.3926 4.624,-1.0833 9.248,-2.1664 13.87,-3.2488 2.368,0.089 4.737,0.18 7.104,0.2708"
         sodipodi:nodetypes="cccccc" />
      <path
         style="fill:none;stroke:#ffffff;stroke-width:4.06032;stroke-linecap:round;stroke-linejoin:round;stroke-miterlimit:4;stroke-dasharray:none;stroke-opacity:1"
         d="m -10409.744,4402.3306 c -0.665,-4.9653 -1.353,-10.1076 -2.988,-14.3036 -1.635,-4.1959 -4.228,-7.5353 -7.498,-10.2424 -3.27,-2.7071 -7.217,-4.7828 -11.22,-6.0011 -4.003,-1.2182 -8.062,-1.5792 -12.122,-1.9402"
         id="path1218-5-7-6-4-0-5-8-5-1"
         inkscape:connector-curvature="0"
         inkscape:path-effect="#path-effect22697"
         inkscape:original-d="m -10409.744,4402.3306 c -0.676,-4.9638 -1.352,-10.1077 -2.029,-15.1607 -2.593,-3.3392 -5.187,-6.6785 -7.781,-10.017 -3.946,-2.0761 -7.893,-4.1517 -11.84,-6.2267 -4.059,-0.3616 -8.118,-0.7226 -12.178,-1.0829" />
      <path
         style="fill:none;stroke:#ffffff;stroke-width:4.06032;stroke-linecap:round;stroke-linejoin:round;stroke-miterlimit:4;stroke-dasharray:none;stroke-opacity:1"
         d="m -10437.587,4331.7564 c 5.766,2.2186 11.728,4.5123 17.817,5.7305 6.089,1.2182 12.404,1.3987 17.816,-0.045 5.412,-1.4439 9.923,-4.5125 13.137,-8.2122 3.213,-3.6997 5.13,-8.0323 6.258,-11.0101 1.127,-2.9778 1.466,-4.6023 1.804,-6.2262"
         id="path1222-8-3-25-7-6-2-7-8-6"
         inkscape:connector-curvature="0"
         inkscape:path-effect="#path-effect22699"
         inkscape:original-d="m -10437.587,4331.7564 c 5.752,2.2555 11.728,4.5115 17.591,6.7682 6.315,0.1799 12.63,0.3604 18.944,0.5414 4.51,-3.0685 9.021,-6.137 13.531,-9.2047 1.917,-4.3315 3.835,-8.6638 5.751,-12.995 0.339,-1.6246 0.677,-3.2492 1.015,-4.8731" />
      <path
         style="fill:none;stroke:#ffffff;stroke-width:4.06032;stroke-linecap:round;stroke-linejoin:round;stroke-miterlimit:4;stroke-dasharray:none;stroke-opacity:1"
         d="m -10412.892,4338.5246 c -0.265,3.27 -0.531,6.54 0.484,9.2139 1.015,2.6739 3.309,4.7491 6.261,6.4078 2.952,1.6587 6.561,2.9002 9.38,3.5209 2.819,0.6206 4.849,0.6206 6.878,0.6206"
         id="path1226-7-53-75-1-6-4-59-87-1"
         inkscape:connector-curvature="0"
         inkscape:path-effect="#path-effect22701"
         inkscape:original-d="m -10412.892,4338.5246 c -0.265,3.27 -0.53,6.54 -0.796,9.8119 2.295,2.0755 4.589,4.1506 6.883,6.2267 3.61,1.241 7.219,2.4825 10.827,3.7246 2.03,-6e-4 4.06,-6e-4 6.089,0"
         sodipodi:nodetypes="ccccc" />
    </g>
  </g>
</svg>
