<?xml version="1.0" encoding="UTF-8" standalone="no"?>
<svg
   xmlns:dc="http://purl.org/dc/elements/1.1/"
   xmlns:cc="http://creativecommons.org/ns#"
   xmlns:rdf="http://www.w3.org/1999/02/22-rdf-syntax-ns#"
   xmlns:svg="http://www.w3.org/2000/svg"
   xmlns="http://www.w3.org/2000/svg"
   xmlns:xlink="http://www.w3.org/1999/xlink"
   xmlns:sodipodi="http://sodipodi.sourceforge.net/DTD/sodipodi-0.dtd"
   xmlns:inkscape="http://www.inkscape.org/namespaces/inkscape"
   width="762.96899mm"
   height="369.16669mm"
   viewBox="0 0 762.96899 369.16669"
   version="1.1"
   id="svg8056"
   inkscape:version="1.0.2-2 (e86c870879, 2021-01-15)"
   sodipodi:docname="light_openMINDS-logo.svg">
  <defs
     id="defs8050">
    <linearGradient
       inkscape:collect="always"
       xlink:href="#linear-gradient"
       id="linearGradient17426"
       gradientUnits="userSpaceOnUse"
       gradientTransform="translate(-4408.5277,808.3532)"
       x1="-6012.9951"
       y1="-2083.6816"
       x2="-6012.9951"
       y2="-2217.5669" />
    <linearGradient
       gradientUnits="userSpaceOnUse"
       y2="100"
       x2="200"
       y1="100"
       x1="0.5"
       id="linear-gradient">
      <stop
         id="stop15253"
         stop-color="#f7db2e"
         offset="0" />
      <stop
         id="stop15255"
         stop-color="#82c558"
         offset="0.5" />
      <stop
         id="stop15257"
         stop-color="#127e7a"
         offset="1" />
    </linearGradient>
    <inkscape:path-effect
       effect="bspline"
       id="path-effect1192-2-82-04-8-9-1-8-6-7-7"
       is_visible="true"
       weight="33.333333"
       steps="2"
       helper_size="0"
       apply_no_weight="true"
       apply_with_weight="true"
       only_selected="false"
       lpeversion="0" />
    <inkscape:path-effect
       effect="bspline"
       id="path-effect1192-2-82-04-8-9-1-8-68-7"
       is_visible="true"
       weight="33.333333"
       steps="2"
       helper_size="0"
       apply_no_weight="true"
       apply_with_weight="true"
       only_selected="false"
       lpeversion="0" />
    <inkscape:path-effect
       effect="bspline"
       id="path-effect1200-8-8-45-8-2-6-49-4"
       is_visible="true"
       weight="33.333333"
       steps="2"
       helper_size="0"
       apply_no_weight="true"
       apply_with_weight="true"
       only_selected="false"
       lpeversion="0" />
    <inkscape:path-effect
       effect="bspline"
       id="path-effect1204-5-60-497-0-5-1-5-2"
       is_visible="true"
       weight="33.333333"
       steps="2"
       helper_size="0"
       apply_no_weight="true"
       apply_with_weight="true"
       only_selected="false"
       lpeversion="0" />
    <inkscape:path-effect
       effect="bspline"
       id="path-effect1208-5-8-2-9-56-2-2-7"
       is_visible="true"
       weight="33.333333"
       steps="2"
       helper_size="0"
       apply_no_weight="true"
       apply_with_weight="true"
       only_selected="false"
       lpeversion="0" />
    <inkscape:path-effect
       effect="bspline"
       id="path-effect1212-9-57-4-5-4-9-1-2"
       is_visible="true"
       weight="33.333333"
       steps="2"
       helper_size="0"
       apply_no_weight="true"
       apply_with_weight="true"
       only_selected="false"
       lpeversion="0" />
    <inkscape:path-effect
       effect="bspline"
       id="path-effect1216-0-22-53-2-26-2-9-4"
       is_visible="true"
       weight="33.333333"
       steps="2"
       helper_size="0"
       apply_no_weight="true"
       apply_with_weight="true"
       only_selected="false"
       lpeversion="0" />
    <inkscape:path-effect
       effect="bspline"
       id="path-effect1220-7-50-12-0-8-4-0-4"
       is_visible="true"
       weight="33.333333"
       steps="2"
       helper_size="0"
       apply_no_weight="true"
       apply_with_weight="true"
       only_selected="false"
       lpeversion="0" />
    <inkscape:path-effect
       effect="bspline"
       id="path-effect1224-5-24-6-0-4-9-46-9"
       is_visible="true"
       weight="33.333333"
       steps="2"
       helper_size="0"
       apply_no_weight="true"
       apply_with_weight="true"
       only_selected="false"
       lpeversion="0" />
    <inkscape:path-effect
       effect="bspline"
       id="path-effect1228-4-61-58-2-2-4-81-4"
       is_visible="true"
       weight="33.333333"
       steps="2"
       helper_size="0"
       apply_no_weight="true"
       apply_with_weight="true"
       only_selected="false"
       lpeversion="0" />
  </defs>
  <sodipodi:namedview
     id="base"
     pagecolor="#ffffff"
     bordercolor="#666666"
     borderopacity="1.0"
     inkscape:pageopacity="0.0"
     inkscape:pageshadow="2"
     inkscape:zoom="0.19204833"
     inkscape:cx="1087.9751"
     inkscape:cy="859.39272"
     inkscape:document-units="mm"
     inkscape:current-layer="layer1"
     inkscape:document-rotation="0"
     showgrid="false"
     inkscape:window-width="1920"
     inkscape:window-height="1001"
     inkscape:window-x="-9"
     inkscape:window-y="469"
     inkscape:window-maximized="1" />
  <metadata
     id="metadata8053">
    <rdf:RDF>
      <cc:Work
         rdf:about="">
        <dc:format>image/svg+xml</dc:format>
        <dc:type
           rdf:resource="http://purl.org/dc/dcmitype/StillImage" />
        <dc:title></dc:title>
      </cc:Work>
    </rdf:RDF>
  </metadata>
  <g
     inkscape:label="Ebene 1"
     inkscape:groupmode="layer"
     id="layer1"
     transform="translate(240.716,54.0439)">
    <g
       id="g8639"
       transform="translate(10819.002,1514.2199)">
      <path
         inkscape:export-ydpi="50"
         inkscape:export-xdpi="50"
         sodipodi:nodetypes="cccc"
         inkscape:connector-curvature="0"
         id="path1486-5-5-5-1-5-9-07"
         d="m -10513.368,-1445.526 v 207.0198 l -109.365,-207.675 v 207.0192"
         style="fill:none;stroke:#000000;stroke-width:15;stroke-linecap:round;stroke-linejoin:round;stroke-miterlimit:4;stroke-dasharray:none;stroke-opacity:1" />
      <path
         inkscape:export-ydpi="50"
         inkscape:export-xdpi="50"
         sodipodi:nodetypes="ccccc"
         inkscape:connector-curvature="0"
         id="path1908-1-5-79-2-0-88-3"
         d="m -10897.934,-1206.5976 v -239.5843 l 88.482,69.0685 88.483,-69.0685 v 207.0199"
         style="fill:none;stroke:#000000;stroke-width:15;stroke-linecap:round;stroke-linejoin:round;stroke-miterlimit:4;stroke-dasharray:none;stroke-opacity:1" />
      <path
         style="fill:none;fill-opacity:1;stroke:#000000;stroke-width:15;stroke-linecap:round;stroke-linejoin:round;stroke-miterlimit:4;stroke-dasharray:none;stroke-dashoffset:0;stroke-opacity:1"
         d="m -10971.283,-1525.8806 c 0,17.8037 -18.118,34.8823 -40.468,34.8823 -22.349,0 -40.467,-17.0786 -40.467,-34.8823 0,-17.8038 18.118,-34.8824 40.467,-34.8824 22.35,0 40.468,17.0786 40.468,34.8824 z"
         id="path1910-6-6-8-8-7-5-89-0"
         inkscape:connector-curvature="0"
         sodipodi:nodetypes="sssss" />
      <path
         sodipodi:nodetypes="cccssscc"
         inkscape:connector-curvature="0"
         id="path1942-5-1-9-0-95-4-20"
         d="m -10951.286,-1440.6226 v -50.3756 m 0,-69.7107 36.994,-0.054 c 22.349,-0.04 40.467,17.0787 40.467,34.8825 0,17.8036 -18.117,34.8821 -40.467,34.8821 h -36.994 z"
         style="fill:none;stroke:#000000;stroke-width:15;stroke-linecap:round;stroke-linejoin:round;stroke-miterlimit:4;stroke-dasharray:none;stroke-opacity:1" />
      <g
         inkscape:export-ydpi="50"
         inkscape:export-xdpi="50"
         style="stroke-width:9.92515;stroke-miterlimit:4;stroke-dasharray:none"
         transform="matrix(1.5113121,0,0,1.5113121,-10683.298,-1538.9225)"
         id="g1996-8-1-58-6-6-47-6">
        <path
           style="opacity:1;fill:none;fill-opacity:1;stroke:#000000;stroke-width:9.92515;stroke-linecap:round;stroke-linejoin:round;stroke-miterlimit:4;stroke-dasharray:none;stroke-dashoffset:0;stroke-opacity:1"
           d="m -64.944758,22.900443 c -5.800014,5.679036 -14.834199,8.70694 -21.116025,8.80986 -14.788057,0 -26.776137,-11.300517 -26.776137,-23.0808293 m 0,0 c 0,-11.7803118 11.98808,-23.0808287 26.776137,-23.0808297 14.788054,0 26.77614,11.300517 26.77614,23.0808297 z"
           id="path1910-6-3-1-0-87-3-4-3-1"
           inkscape:connector-curvature="0"
           sodipodi:nodetypes="ccccscc" />
      </g>
      <g
         inkscape:export-ydpi="50"
         inkscape:export-xdpi="50"
         style="stroke-width:9.92515;stroke-miterlimit:4;stroke-dasharray:none"
         transform="matrix(1.5113121,0,0,1.5113121,-10703.236,-1548.1284)"
         id="g2033-8-98-9-6-3-4-6">
        <path
           style="opacity:1;fill:none;fill-opacity:1;stroke:#000000;stroke-width:9.92515;stroke-linecap:round;stroke-linejoin:round;stroke-miterlimit:4;stroke-dasharray:none;stroke-dashoffset:0;stroke-opacity:1"
           d="m -32.785292,14.755479 c 0,-11.7803139 11.988086,-23.080635 26.77614,-23.080635 14.788054,0 26.776152,11.3000415 26.776152,23.080355 V 204.43589"
           id="path1910-6-7-3-5-2-3-7-50-4"
           inkscape:connector-curvature="0"
           sodipodi:nodetypes="cssc" />
        <path
           style="fill:none;stroke:#000000;stroke-width:9.92515;stroke-linecap:round;stroke-linejoin:round;stroke-miterlimit:4;stroke-dasharray:none;stroke-opacity:1"
           d="m -32.785042,-8.2893725 -2.5e-4,23.0448515 2.5e-4,23.116521"
           id="path2028-2-0-71-7-8-4-1"
           inkscape:connector-curvature="0"
           sodipodi:nodetypes="ccc" />
      </g>
      <path
         sodipodi:nodetypes="cccsaaaascaaassac"
         inkscape:connector-curvature="0"
         id="path1910-6-0-3-9-8-3-61-3-4"
         d="m -10811.569,-1206.5971 h 260.527 66.695 60.251 c 25.373,0 50.268,-2.1751 71.134,-14.4205 15.938,-9.3539 28.363,-25.2896 36.113,-42.0669 11.334,-24.5383 12.6,-53.0741 12.6,-80.1036 0,-27.0296 -1.266,-55.5653 -12.6,-80.1036 -7.75,-16.7773 -20.589,-32.0413 -36.113,-42.0669 -19.866,-12.8288 -66.166,-13.6883 -86.252,-14.4191 -20.468,-1.8113 -24.905,-1.8782 -33.342,-9.8186 -7.849,-7.3875 -10.997,-19.6307 -10.997,-30.4098 0,-10.7791 3.47,-22.6946 10.997,-30.4099 6.633,-6.7985 17.051,-10.3478 26.55,-10.3478 h 93.823 c 9.498,0 19.917,3.5492 26.55,10.3478 7.527,7.7153 10.996,22.1506 10.996,30.4099"
         style="fill:none;fill-opacity:1;stroke:#000000;stroke-width:15;stroke-linecap:round;stroke-linejoin:round;stroke-miterlimit:4;stroke-dasharray:none;stroke-dashoffset:0;stroke-opacity:1" />
      <path
         style="fill:url(#linearGradient17426);fill-opacity:1;stroke:none;stroke-width:14;stroke-linecap:round;stroke-linejoin:round;stroke-miterlimit:4;stroke-dasharray:none;stroke-opacity:1"
         d="m -10466.307,-1440.3851 c 0,0 0,186.3901 0,186.3901 3.193,3.3365 6.385,6.6729 11.59,9.5474 5.205,2.8746 12.421,5.2869 20.139,6.0909 7.718,0.8039 15.939,-2e-4 21.83,-2.0472 5.891,-2.047 9.454,-5.337 11.945,-7.8014 2.492,-2.4644 3.914,-4.1049 5.218,-4.8883 1.305,-0.7833 2.493,-0.7102 6.195,-0.4387 3.702,0.2716 9.927,0.7421 15.001,-2.0926 5.073,-2.8347 9.002,-8.9768 10.131,-15.2502 1.129,-6.2733 -0.538,-12.6772 -0.779,-15.9931 -0.241,-3.316 0.947,-3.5353 4.23,-5.747 3.283,-2.2117 8.668,-6.4203 11.453,-10.7934 2.786,-4.3732 2.968,-8.9028 2.138,-13.4736 -0.831,-4.5707 -2.676,-9.1826 -4.52,-13.7939 0,0 -1.097,-1.0966 -1.097,-1.0966 3.178,-3.8532 6.357,-7.7076 7.123,-12.5937 0.767,-4.8861 -0.878,-10.8084 -2.875,-14.3954 -1.997,-3.587 -4.347,-4.8401 -4.849,-9.3137 -0.503,-4.4737 0.844,-12.1633 0.464,-17.7506 -0.38,-5.5874 -2.488,-9.0775 -5.653,-11.6182 -3.166,-2.5407 -7.393,-4.1343 -10.914,-5.7142 -3.521,-1.5798 -6.337,-3.1462 -8.101,-7.7227 -1.764,-4.5765 -2.476,-12.1628 -5.465,-16.8927 -2.988,-4.7299 -8.253,-6.6034 -13.043,-6.6835 -4.79,-0.08 -9.102,1.6332 -13.019,1.3358 -3.916,-0.2975 -7.432,-2.6068 -10.21,-4.803 -2.778,-2.1963 -4.81,-4.2705 -8.11,-5.9683 -3.3,-1.6978 -7.772,-2.9719 -12.254,-3.712 -4.482,-0.74 -8.914,-0.9339 -13.089,-0.758 -4.175,0.1759 -8.039,0.7192 -10.241,2.1125 -2.202,1.3934 -2.72,3.6279 -3.238,5.8653 z"
         id="path1190-2-8-8-7-0-8-9-2-95"
         inkscape:connector-curvature="0"
         inkscape:path-effect="#path-effect1192-2-82-04-8-9-1-8-6-7-7"
         inkscape:original-d="m -10466.307,-1440.3851 v 186.3901 c 0,0 6.386,6.6721 9.578,10.0095 7.217,2.4116 14.433,4.8237 21.648,7.2369 8.221,-0.8049 16.442,-1.6091 24.661,-2.4123 3.563,-3.2899 7.126,-6.5798 10.687,-9.8684 1.422,-1.6402 2.844,-3.2806 4.265,-4.9208 1.188,0.073 2.376,0.146 3.563,0.2194 6.217,0.4697 12.442,0.9403 18.662,1.4107 3.927,-6.1398 7.856,-12.2817 11.783,-18.4209 -1.669,-6.4074 -3.336,-12.8114 -5.006,-19.2239 1.188,-0.2196 2.376,-0.4389 3.562,-0.6577 5.38,-4.2043 10.765,-8.413 16.153,-12.6237 0.183,-4.5356 0.366,-9.0652 0.548,-13.5961 -1.844,-4.6106 -5.533,-13.8338 -5.533,-13.8338 l -1.097,-1.0966 c 0,0 6.357,-7.7075 9.534,-11.5597 -1.644,-5.9201 -3.288,-11.8426 -4.933,-17.7631 -2.35,-1.2537 -4.7,-2.5068 -7.052,-3.7605 1.347,-7.6932 2.694,-15.3828 4.04,-23.0697 -2.106,-3.4878 -4.213,-6.9782 -6.32,-10.4664 -4.225,-1.5935 -8.452,-3.1869 -12.679,-4.7801 -2.815,-1.5667 -5.631,-3.1328 -8.447,-4.6989 -0.711,-7.5867 -1.423,-15.173 -2.136,-22.7591 -5.265,-1.874 -10.53,-3.7476 -15.797,-5.6212 -4.313,1.7139 -8.625,3.4271 -12.941,5.1423 -3.517,-2.3102 -7.033,-4.6197 -10.546,-6.9263 -2.043,-2.0858 -4.075,-4.16 -6.135,-6.2619 -4.54,-1.2937 -9.012,-2.5678 -13.524,-3.8529 -4.452,-0.195 -8.884,-0.3889 -13.345,-0.5837 -3.889,0.5467 -7.753,1.0899 -11.638,1.6365 -0.519,2.2404 -1.555,6.7123 -1.555,6.7123 z"
         sodipodi:nodetypes="cccccccccccccccccccccccscccccccc" />
      <path
         style="fill:none;stroke:#000000;stroke-width:14;stroke-linecap:round;stroke-linejoin:round;stroke-miterlimit:4;stroke-dasharray:none;stroke-opacity:1"
         d="m -10464.576,-1422.97 c 0,0 0,153.4443 0,153.4443 0,6.5622 0,13.1241 1.596,17.3843 1.596,4.2603 4.789,6.2189 9.994,8.4046 5.205,2.1856 12.42,4.5977 20.138,5.4017 7.718,0.8041 15.94,-2e-4 21.831,-2.0471 5.891,-2.047 9.454,-5.337 11.945,-7.8011 2.491,-2.4642 3.913,-4.1047 5.218,-4.8883 1.305,-0.7836 2.493,-0.7105 6.194,-0.4389 3.702,0.2715 9.928,0.7421 15.001,-2.0929 5.074,-2.835 9.002,-8.9766 10.131,-15.2498 1.13,-6.2733 -0.538,-12.6774 -0.779,-15.9934 -0.24,-3.316 0.947,-3.5351 4.23,-5.7466 3.283,-2.2115 8.669,-6.4206 11.454,-10.7937 2.785,-4.3732 2.968,-8.9028 1.954,-13.6562 -1.013,-4.7535 -3.223,-9.7311 -5.433,-14.7079 3.178,-3.8532 6.356,-7.7074 7.123,-12.5936 0.766,-4.8863 -0.878,-10.8087 -2.876,-14.3957 -1.997,-3.587 -4.347,-4.84 -4.849,-9.3137 -0.502,-4.4736 0.845,-12.163 0.465,-17.7504 -0.38,-5.5874 -2.488,-9.0779 -5.654,-11.6186 -3.166,-2.5407 -7.392,-4.1339 -10.914,-5.714 -3.521,-1.58 -6.336,-3.146 -8.1,-7.7226 -1.764,-4.5765 -2.476,-12.1628 -5.465,-16.8928 -2.989,-4.73 -8.254,-6.6035 -13.044,-6.6834 -4.79,-0.08 -9.102,1.6335 -13.018,1.3361 -3.916,-0.2974 -7.433,-2.6073 -10.194,-4.5969 -2.76,-1.9896 -4.758,-3.6527 -8.054,-5.207 -3.296,-1.5543 -7.794,-2.9556 -12.293,-3.7563 -4.499,-0.8008 -8.94,-0.9875 -13.119,-0.6614 -4.179,0.3261 -8.047,1.1615 -10.246,2.6019 -2.2,1.4404 -2.718,3.483 -3.236,5.5257 0,0 0,16.2237 0,16.2237 z"
         id="path1190-2-8-8-7-0-8-9-1"
         inkscape:connector-curvature="0"
         sodipodi:nodetypes="ccaccccccccccccccccccccsccccccccc"
         inkscape:original-d="m -10464.576,-1422.97 v 153.4443 c 0,0 0,13.1241 0,19.6865 3.192,1.9582 6.385,3.9167 9.578,5.8754 7.217,2.4116 14.432,4.8237 21.647,7.2369 8.221,-0.8049 16.443,-1.6091 24.662,-2.4123 3.563,-3.2899 7.126,-6.5798 10.687,-9.8684 1.421,-1.6402 2.843,-3.2806 4.265,-4.9208 1.188,0.073 2.376,0.146 3.562,0.2194 6.217,0.4697 12.443,0.9403 18.662,1.4107 3.928,-6.1398 7.856,-12.2817 11.783,-18.4209 -1.668,-6.4074 -3.336,-12.8114 -5.006,-19.2239 1.189,-0.2196 2.376,-0.4389 3.563,-0.6577 5.379,-4.2043 10.765,-8.413 16.153,-12.6237 0.183,-4.5356 0.365,-9.0652 0.547,-13.5961 -2.209,-4.9761 -6.629,-14.9304 -6.629,-14.9304 0,0 6.356,-7.7075 9.533,-11.5597 -1.644,-5.9201 -3.288,-11.8426 -4.932,-17.7631 -2.351,-1.2537 -4.701,-2.5068 -7.053,-3.7605 1.348,-7.6932 2.694,-15.3828 4.041,-23.0697 -2.106,-3.4878 -4.214,-6.9782 -6.32,-10.4664 -4.226,-1.5935 -8.452,-3.1869 -12.679,-4.7801 -2.816,-1.5667 -5.631,-3.1328 -8.447,-4.6989 -0.712,-7.5867 -1.424,-15.173 -2.136,-22.7591 -5.266,-1.874 -10.531,-3.7476 -15.797,-5.6212 -4.314,1.7139 -8.626,3.4271 -12.942,5.1423 -3.516,-2.3102 -7.033,-4.6197 -10.545,-6.9263 -2.009,-1.6728 -4.007,-3.3361 -6.033,-5.0217 -4.566,-1.4229 -9.064,-2.8243 -13.603,-4.2378 -4.459,-0.1878 -8.9,-0.3745 -13.368,-0.562 -3.89,0.8397 -7.758,1.6752 -11.639,2.5135 -0.518,2.0427 -1.554,6.128 -1.554,6.128 z"
         inkscape:path-effect="#path-effect1192-2-82-04-8-9-1-8-68-7" />
      <path
         style="fill:none;stroke:#000000;stroke-width:4.06032;stroke-linecap:round;stroke-linejoin:round;stroke-miterlimit:4;stroke-dasharray:none;stroke-opacity:1"
         d="m -10398.645,-1429.3037 c -2.396,0.5064 -4.788,1.0119 -8.309,1.763 -3.521,0.7511 -8.147,1.7426 -11.381,3.6251 -3.234,1.8825 -5.065,4.652 -5.941,6.4477 -0.876,1.7958 -0.793,2.6152 -0.711,3.4344"
         id="path1198-1-7-1-8-23-1-32-1"
         inkscape:connector-curvature="0"
         inkscape:path-effect="#path-effect1200-8-8-45-8-2-6-49-4"
         inkscape:original-d="m -10398.645,-1429.3037 c -2.396,0.5061 -4.788,1.0116 -7.188,1.5191 -4.642,0.9948 -9.268,1.9863 -13.903,2.98 -1.833,2.7714 -3.664,5.5413 -5.498,8.3135 0.08,0.8192 0.165,1.6384 0.247,2.4576"
         sodipodi:nodetypes="ccccc" />
      <path
         style="fill:none;stroke:#000000;stroke-width:4.06032;stroke-linecap:round;stroke-linejoin:round;stroke-miterlimit:4;stroke-dasharray:none;stroke-opacity:1"
         d="m -10462.168,-1384.1825 c 3.631,-4.2541 7.261,-8.5072 12.05,-9.795 4.788,-1.2879 10.736,0.3896 16.682,2.0665"
         id="path1202-4-02-6-4-91-82-9-9"
         inkscape:connector-curvature="0"
         inkscape:path-effect="#path-effect1204-5-60-497-0-5-1-5-2"
         inkscape:original-d="m -10462.168,-1384.1825 c 3.631,-4.2541 7.261,-8.5073 10.891,-12.76 5.947,1.6768 11.895,3.3543 17.841,5.0315"
         sodipodi:nodetypes="ccc" />
      <path
         style="fill:none;stroke:#000000;stroke-width:4.06032;stroke-linecap:round;stroke-linejoin:round;stroke-miterlimit:4;stroke-dasharray:none;stroke-opacity:1"
         d="m -10361.419,-1395.1679 c -4.297,-2.0031 -8.593,-4.0057 -12.092,-5.3148 -3.498,-1.309 -6.198,-1.9241 -10.046,-2.1544 -3.847,-0.2303 -8.842,-0.076 -12.86,1.7029 -4.019,1.7788 -7.059,5.1814 -9.088,8.6882 -2.028,3.5068 -3.043,7.116 -3.324,9.8823 -0.282,2.7664 0.171,4.6883 0.623,6.6102"
         id="path1206-3-4-5-1-1-2-5-6"
         inkscape:connector-curvature="0"
         inkscape:path-effect="#path-effect1208-5-8-2-9-56-2-2-7"
         inkscape:original-d="m -10361.419,-1395.1679 c -4.297,-2.0034 -8.593,-4.0059 -12.89,-6.0087 -2.7,-0.6154 -5.4,-1.2305 -8.1,-1.8453 -4.995,0.1542 -9.99,0.3087 -14.986,0.4634 -3.041,3.403 -6.081,6.8059 -9.123,10.2099 -1.014,3.6097 -2.029,7.2188 -3.045,10.8292 0.453,1.9219 0.905,3.8439 1.357,5.7659"
         sodipodi:nodetypes="cccccsc" />
      <path
         style="fill:none;stroke:#000000;stroke-width:4.06032;stroke-linecap:round;stroke-linejoin:round;stroke-miterlimit:4;stroke-dasharray:none;stroke-opacity:1"
         d="m -10353.19,-1336.9531 c -2.295,2.6264 -4.588,5.251 -6.784,7.4137 -2.196,2.1628 -4.29,3.8589 -7.655,5.4509 -3.365,1.5921 -8,3.079 -10.994,3.8104 -2.994,0.7315 -4.346,0.7075 -5.7,0.6835"
         id="path1210-3-03-6-6-0-1-82-5"
         inkscape:connector-curvature="0"
         inkscape:path-effect="#path-effect1212-9-57-4-5-4-9-1-2"
         inkscape:original-d="m -10353.19,-1336.9531 c -2.295,2.6262 -4.588,5.251 -6.884,7.8788 -2.096,1.6977 -4.19,3.394 -6.286,5.0913 -4.634,1.4865 -9.269,2.9732 -13.904,4.4604 -1.353,-0.024 -2.705,-0.048 -4.059,-0.072"
         sodipodi:nodetypes="ccccc" />
      <path
         style="fill:none;stroke:#000000;stroke-width:4.06032;stroke-linecap:round;stroke-linejoin:round;stroke-miterlimit:4;stroke-dasharray:none;stroke-opacity:1"
         d="m -10432.822,-1260.9301 c -0.163,-1.1655 -0.326,-2.3309 0.131,-4.8184 0.457,-2.4875 1.535,-6.2964 3.991,-9.5996 2.456,-3.3032 6.29,-6.1007 10.518,-8.0405 4.228,-1.9399 8.852,-3.023 12.348,-3.5193 3.495,-0.4962 5.863,-0.406 8.231,-0.3157"
         id="path1214-8-85-3-2-0-9-2-2"
         inkscape:connector-curvature="0"
         inkscape:path-effect="#path-effect1216-0-22-53-2-26-2-9-4"
         inkscape:original-d="m -10432.822,-1260.9301 c -0.163,-1.1655 -0.325,-2.331 -0.489,-3.4967 1.078,-3.8091 2.156,-7.6178 3.232,-11.4262 3.835,-2.7983 7.669,-5.5957 11.502,-8.3926 4.623,-1.0833 9.247,-2.1664 13.87,-3.2488 2.368,0.089 4.736,0.18 7.104,0.2708"
         sodipodi:nodetypes="cccccc" />
      <path
         style="fill:none;stroke:#000000;stroke-width:4.06032;stroke-linecap:round;stroke-linejoin:round;stroke-miterlimit:4;stroke-dasharray:none;stroke-opacity:1"
         d="m -10410.458,-1286.6822 c -0.665,-4.9653 -1.353,-10.1076 -2.988,-14.3034 -1.635,-4.1958 -4.229,-7.5353 -7.499,-10.2425 -3.269,-2.7072 -7.216,-4.7829 -11.219,-6.0012 -4.003,-1.2182 -8.062,-1.5791 -12.123,-1.9402"
         id="path1218-5-7-6-4-0-5-8-5"
         inkscape:connector-curvature="0"
         inkscape:path-effect="#path-effect1220-7-50-12-0-8-4-0-4"
         inkscape:original-d="m -10410.458,-1286.6822 c -0.676,-4.9638 -1.353,-10.1077 -2.03,-15.1607 -2.592,-3.3392 -5.186,-6.6785 -7.78,-10.017 -3.946,-2.0761 -7.893,-4.1517 -11.84,-6.2267 -4.059,-0.3616 -8.118,-0.7226 -12.179,-1.0829" />
      <path
         style="fill:none;stroke:#000000;stroke-width:4.06032;stroke-linecap:round;stroke-linejoin:round;stroke-miterlimit:4;stroke-dasharray:none;stroke-opacity:1"
         d="m -10438.301,-1357.2564 c 5.765,2.2183 11.728,4.5125 17.817,5.7306 6.089,1.2181 12.404,1.3986 17.816,-0.045 5.412,-1.4439 9.923,-4.5125 13.137,-8.2122 3.213,-3.6997 5.13,-8.0319 6.258,-11.0099 1.127,-2.978 1.466,-4.6025 1.804,-6.2264"
         id="path1222-8-3-25-7-6-2-7-8"
         inkscape:connector-curvature="0"
         inkscape:path-effect="#path-effect1224-5-24-6-0-4-9-46-9"
         inkscape:original-d="m -10438.301,-1357.2564 c 5.751,2.2555 11.728,4.5115 17.59,6.7682 6.316,0.1799 12.631,0.3604 18.945,0.5414 4.51,-3.0685 9.021,-6.137 13.531,-9.2047 1.917,-4.3315 3.834,-8.6638 5.751,-12.995 0.339,-1.6246 0.677,-3.2492 1.015,-4.8731" />
      <path
         style="fill:none;stroke:#000000;stroke-width:4.06032;stroke-linecap:round;stroke-linejoin:round;stroke-miterlimit:4;stroke-dasharray:none;stroke-opacity:1"
         d="m -10413.606,-1350.4882 c -0.266,3.27 -0.531,6.54 0.484,9.214 1.014,2.6741 3.308,4.7491 6.26,6.4076 2.952,1.6585 6.561,2.9 9.38,3.5208 2.82,0.6208 4.85,0.6208 6.879,0.6208"
         id="path1226-7-53-75-1-6-4-59-87"
         inkscape:connector-curvature="0"
         inkscape:path-effect="#path-effect1228-4-61-58-2-2-4-81-4"
         inkscape:original-d="m -10413.606,-1350.4882 c -0.265,3.27 -0.531,6.54 -0.797,9.8119 2.296,2.0755 4.59,4.1506 6.884,6.2267 3.609,1.241 7.218,2.4825 10.827,3.7246 2.03,-6e-4 4.06,-6e-4 6.089,0"
         sodipodi:nodetypes="ccccc" />
    </g>
  </g>
</svg>
